<?xml version="1.0" encoding="UTF-8" standalone="no"?>
<!-- Created with Inkscape (http://www.inkscape.org/) -->

<svg
   xmlns:dc="http://purl.org/dc/elements/1.1/"
   xmlns:cc="http://creativecommons.org/ns#"
   xmlns:rdf="http://www.w3.org/1999/02/22-rdf-syntax-ns#"
   xmlns:svg="http://www.w3.org/2000/svg"
   xmlns="http://www.w3.org/2000/svg"
   xmlns:xlink="http://www.w3.org/1999/xlink"
   xmlns:sodipodi="http://sodipodi.sourceforge.net/DTD/sodipodi-0.dtd"
   xmlns:inkscape="http://www.inkscape.org/namespaces/inkscape"
   sodipodi:docname="eagle_head.svg"
   id="svg8"
   version="1.1"
   viewBox="0 0 210 297"
   height="297mm"
   width="210mm"
   inkscape:version="0.92.3 (2405546, 2018-03-11)"
   enable-background="new"
   inkscape:export-filename="/home/cc/Dropbox/public/Eagles_3761/eagle_head.svg.png"
   inkscape:export-xdpi="96"
   inkscape:export-ydpi="96">
  <defs
     id="defs2">
    <filter
       inkscape:collect="always"
       style="color-interpolation-filters:sRGB"
       id="filter26">
      <feBlend
         inkscape:collect="always"
         mode="screen"
         in2="BackgroundImage"
         id="feBlend28" />
    </filter>
  </defs>
  <sodipodi:namedview
     inkscape:window-maximized="1"
     inkscape:window-y="0"
     inkscape:window-x="0"
     inkscape:window-height="1024"
     inkscape:window-width="1920"
     showgrid="false"
     inkscape:current-layer="layer2"
     inkscape:document-units="mm"
     inkscape:cy="753.40142"
     inkscape:cx="388.75894"
     inkscape:zoom="0.5"
     inkscape:pageshadow="2"
     inkscape:pageopacity="0.0"
     borderopacity="1.0"
     bordercolor="#666666"
     pagecolor="#ffffff"
     id="base" />
  <metadata
     id="metadata5">
    <rdf:RDF>
      <cc:Work
         rdf:about="">
        <dc:format>image/svg+xml</dc:format>
        <dc:type
           rdf:resource="http://purl.org/dc/dcmitype/StillImage" />
      </cc:Work>
    </rdf:RDF>
  </metadata>
  <g
     inkscape:label="eagle"
     inkscape:groupmode="layer"
     id="layer1"
     style="display:inline">
    <path
       style="fill:#000000;stroke-width:0.35277778"
       d="m 144.95997,250.56132 c 2.71339,-7.86358 5.69402,-16.09144 4.78669,-24.86343 -0.43852,-12.50398 -7.08768,9.55545 -11.99951,11.94938 -6.32275,7.38981 -14.78996,13.50057 -24.43364,15.39229 2.53196,-6.26753 8.04324,-14.65198 8.2457,-21.26216 -4.59769,6.08653 -7.99132,2.42989 -4.74644,-3.9131 3.78042,-10.21586 -0.42414,2.43994 0.57031,5.80795 4.1032,-2.83152 8.21584,-15.93513 6.81605,-3.50438 1.71737,5.34612 -11.05205,22.10128 0.31151,15.17775 11.5699,-8.04295 18.2801,-21.08499 24.94388,-32.9857 6.33286,3.1686 2.77363,20.09734 5.45541,18.81377 4.54704,-10.18309 4.79803,-21.44182 5.09016,-32.33491 4.42369,2.74301 5.45366,8.11245 5.63484,0.2314 0.22329,-10.63273 7.31497,4.07494 9.59211,7.4371 1.87453,3.02341 3.2002,12.50173 4.88785,3.72013 1.65232,-12.76922 -1.12247,-26.3317 -7.37125,-37.56873 -2.68695,-4.17929 -5.38392,-4.59123 -1.36963,0.28489 1.90422,3.32255 3.76538,12.9467 -0.0217,4.81696 -2.12734,-3.15433 -8.64508,-14.40798 -9.76365,-13.16453 3.35825,3.17972 1.59268,19.79063 -0.36001,8.36253 -1.47631,-5.01861 -5.2737,-13.69474 -3.48281,-3.79924 -0.40759,7.4229 -1.28799,19.33203 -4.71684,23.70973 0.23278,-7.661 2.01318,-23.92051 -1.62335,-26.21793 0.16485,5.03617 -7.55047,22.77561 -6.46301,9.09084 -0.10696,-4.81668 1.21599,-21.12125 -3.04487,-8.76874 -4.04145,10.22065 -5.68891,21.17507 -9.03725,31.60125 -1.56833,-8.58896 0.61716,-17.82184 1.77757,-26.51714 1.36736,-5.5482 3.5034,-12.19129 -1.18669,-3.73183 -2.48618,3.58793 -8.15134,20.06961 -6.60286,7.37644 0.46947,-3.96447 4.21381,-13.644 -0.25191,-4.64413 -4.41846,8.44281 -6.76237,17.82093 -8.3149,27.07352 -3.20251,-2.42191 -0.53089,-17.17834 -3.76338,-12.99236 -3.94935,6.16215 -5.94829,12.62465 -8.55283,19.43273 -0.99164,4.57153 -4.52305,11.18671 -2.86814,2.29305 2.20417,-15.90284 5.86124,-32.23265 14.47206,-45.99931 3.13207,-7.23505 15.69723,-14.90031 16.32839,-18.29025 -8.38929,1.39559 -25.0663,-8.60368 -12.68625,-15.55494 13.56312,-3.55586 29.61075,3.82935 41.69547,-5.6622 4.36427,-2.70989 10.65844,-15.77914 2.5335,-7.50625 -9.77689,4.87838 -21.01426,6.65386 -31.86871,5.7214 -2.10849,-1.67128 13.44473,-3.10896 8.85395,-11.13111 -0.91846,-3.27762 -5.98955,8.30153 -10.47141,2.16099 -9.07175,-4.26815 8.14584,-12.250196 -2.96409,-10.691051 -9.00793,-0.995755 -2.35419,18.576891 -8.85399,8.182261 -5.80129,-10.875595 -20.815894,-5.34879 -28.588934,-14.042064 8.323176,3.314514 20.164144,-1.192548 30.054354,-1.950594 15.30923,0.110828 22.57053,18.992088 38.16997,18.531068 8.86178,1.26144 13.18575,-6.11023 10.76505,-13.742231 4.51493,2.085775 13.29873,13.208401 11.22438,1.542696 0.78734,-12.917143 -9.57336,-22.665108 -19.14023,-29.671691 -9.74458,-3.887438 -19.92045,-7.142755 -29.52348,-11.604689 -9.08615,-3.559975 -18.0501,-8.260116 -27.60412,-10.118149 5.39027,4.148937 8.54405,9.49286 -0.0504,6.443619 -0.98339,0.305991 7.71889,6.824189 0.11514,3.862515 -11.832899,-4.568725 -24.781668,-5.127119 -37.065118,-2.000818 -4.723745,1.171312 -21.847795,4.865096 -8.088177,4.655909 5.276732,1.184365 19.63297,5.733234 6.388096,6.744396 -9.729531,2.444785 -19.335378,6.415047 -26.858383,13.11486 5.280143,0.02053 16.850534,-2.701842 18.656301,-1.04796 -11.471741,4.806512 -24.037218,9.0746 -32.332438,18.861904 4.963318,-2.16873 21.318388,-4.631455 10.546067,2.226122 -8.403944,6.150687 -14.740506,14.773177 -19.095578,24.083577 3.644338,-1.59554 15.477393,-6.41419 7.569603,0.82191 -1.799316,2.72061 -7.98407,8.47204 -0.309524,4.80745 11.074094,-3.34545 -2.926252,8.6759 -2.47367,13.76793 -1.561697,4.61665 -3.749488,12.95551 3.039507,5.67532 13.49706,-6.69095 0.122377,11.3766 1.120201,17.71754 -0.973862,6.80415 -0.48343,13.68426 -0.18357,20.51845 2.054499,-6.95477 14.940955,-17.1563 14.27152,-3.57717 1.834361,4.11265 3.025019,18.92154 5.867218,16.57172 5.308299,-11.73544 6.664103,16.13628 11.646659,10.04639 1.382804,-4.81356 4.164714,-8.38357 0.997071,-1.19234 -2.382846,14.19855 -8.110004,-10.43611 -10.467219,-9.84265 -0.360909,8.88592 -3.430841,7.18834 -6.077515,0.38309 -5.172283,-4.02399 -2.814043,-19.48352 -8.215617,-18.33312 -4.267106,3.72097 -8.038891,14.27294 -10.971624,14.93541 0.307574,-14.08622 -3.528489,-28.89945 2.705646,-42.25798 -4.301297,-1.81066 -7.739891,17.32555 -10.169528,13.91137 -0.145695,-10.14043 0.16184,-21.46067 3.699942,-30.48453 -3.34842,3.47519 -12.6075861,16.0743 -8.36535,4.26011 1.50747,-4.81488 5.572618,-12.34307 -1.9609431,-5.40997 -1.7389769,-5.09784 5.0477731,-16.99063 8.5167351,-23.96825 1.94156,-4.18669 11.34008,-11.00555 2.256131,-6.66774 -5.078737,1.42519 -11.2296996,2.68886 -4.870279,-3.20251 10.444884,-11.697076 17.483109,-27.026457 32.050118,-34.405856 3.746403,-2.001891 11.59544,-4.772508 2.763394,-3.595405 -4.856523,-0.06155 -18.476212,1.360049 -17.569796,-1.193931 11.986465,-6.979553 25.869178,-8.888713 39.044913,-12.557863 8.990581,-2.861624 18.578311,-0.549049 27.587122,-2.948166 -5.028932,-1.809423 -18.258387,-4.507424 -5.183678,-4.929142 17.286113,-1.635776 31.829893,9.384675 47.682223,14.221341 14.06978,5.292853 29.30635,11.423547 37.11417,25.186967 8.35422,7.659276 -2.26797,23.077625 9.87155,26.310985 10.91949,6.5936 15.6217,20.39424 12.274,32.50125 -1.3176,6.33285 -11.57942,25.22633 -13.25023,9.59883 -2.97395,-10.42961 -18.34242,-13.50139 -25.96003,-6.14402 -11.05585,11.09099 9.15092,18.11963 12.9841,27.06916 6.02235,13.56357 12.35273,29.77155 6.13673,44.35443 -1.40098,4.27022 -6.22252,10.10289 -5.76813,1.42702 0.0791,-2.5643 -6.6543,-18.97179 -5.71678,-10.84677 0.90487,5.90359 -2.69708,23.42912 -4.65711,9.05009 -1.48429,-8.32278 -1.38277,4.47932 -2.68136,6.94214 -1.14734,9.86456 -8.15181,16.60072 -12.99635,24.70179 -1.24347,2.867 -7.26116,10.92302 -4.0984,3.35534 z m 47.53433,-96.07897 c 4.47018,-9.32943 10.15316,-19.86175 5.41714,-30.30098 -4.01502,-11.83944 -16.85453,-15.8623 -25.32439,-23.69357 0.0889,11.84109 -6.47462,25.23038 -19.30324,26.97237 -10.87319,2.82749 -23.54667,-2.14621 -33.32357,3.85777 1.77857,10.80404 19.74355,8.09037 28.63792,7.53913 6.0895,-0.9986 -8.78503,-0.54871 -11.47735,-2.10638 -3.86864,0.28313 -11.79268,-7.13417 -3.40822,-2.39858 16.90087,3.72352 35.79297,-1.00519 51.37957,8.0857 4.93878,0.50221 3.74606,21.17202 7.40214,12.04454 z m -17.87655,-31.10754 c 3.25677,-2.18018 6.11981,-12.52409 9.93747,-4.99915 -0.4749,1.84439 -12.18638,6.67747 -9.93747,4.99915 z m 6.54624,-8.29689 c 1.97222,-0.30457 -0.6066,0.60472 0,0 z M 50.944997,236.12695 c -6.563829,-3.68279 -12.682834,-22.96553 -9.523991,-22.47126 -0.393048,3.8262 6.437426,18.85779 7.545403,14.2065 -0.38031,-6.53537 5.622593,-14.97754 8.098363,-4.59333 1.711075,-5.89027 3.979441,-19.46172 8.678643,-11.44961 0.925515,-10.33972 2.072719,-21.76975 9.483375,-29.62341 -6.300776,10.99084 -6.99992,23.77883 -6.885544,36.13041 -3.767,-3.55674 -7.362094,-9.43047 -7.570165,-0.2075 -0.607296,6.84052 -0.947712,16.49637 -6.411854,6.28889 -4.814052,-7.6176 -0.989136,15.02327 -3.41423,11.71931 z m 7.985972,-82.98902 c 2.503738,-4.51954 19.050565,-14.23807 4.983626,-8.47203 -8.331675,2.01143 -20.470838,8.69486 -26.476337,8.3492 4.388645,-7.94094 10.297421,-14.98525 17.32105,-20.72567 -4.291672,1.35326 -13.053315,1.71282 -5.330615,-3.29506 4.1552,-2.61571 6.392679,-4.4362 0.245527,-1.68895 -4.745599,1.71885 -13.081092,4.8721 -16.607806,3.8898 10.268168,-8.11283 20.007826,-18.7719 33.210588,-21.63023 -6.229161,2.5501 -16.750632,9.56929 -22.859125,16.04369 -2.5233,3.48152 10.580264,-2.74383 13.07737,-3.6981 3.89476,-1.92028 13.551392,-6.02676 15.25951,-4.18907 -7.60373,2.53841 -18.323056,11.52024 -4.830371,8.71392 -5.638175,7.57499 -16.528724,12.82744 -20.422793,20.33055 9.931628,-1.86534 19.556595,-5.05669 29.122623,-8.222 3.53922,-0.34768 15.41143,-3.89348 6.107147,0.95187 -10.576534,5.20693 -18.652443,14.45337 -27.796326,21.79124 -8.17942,8.23232 3.424794,-7.24888 4.995932,-8.14916 z M 74.08252,105.62829 c -9.798178,-4.54328 -21.000426,-2.17638 -31.309301,-1.37647 6.244143,-6.446896 16.348198,-9.685528 25.327954,-11.33428 6.144718,-1.333654 21.303512,0.179831 21.752506,2.506782 -11.421665,-1.589299 -23.103657,0.45058 -33.799897,4.557864 6.748993,0.158094 15.614037,0.391564 19.63173,6.457294 l -1.60299,-0.81122 z m 86.8629,-18.158494 c -4.64238,-6.531992 -22.62334,-8.341021 -22.75841,-10.755908 5.19896,-3.398331 17.54852,6.028172 17.34013,1.604807 -3.69612,-3.296016 -10.70663,-7.004145 -1.82024,-3.558144 3.48653,0.191997 16.6018,15.114017 7.23852,12.709245 z M 69.399578,75.175072 c 4.919112,-6.733723 17.736167,-13.027769 22.754166,-11.011573 -3.734989,0.575663 -15.566712,5.690523 -14.293491,7.41168 4.472833,-0.321596 17.348189,0.682032 6.18399,1.432305 -4.926216,0.322967 -9.860985,1.517624 -14.644665,2.167588 z"
       id="path4583"
       inkscape:connector-curvature="0" />
  </g>
  <g
     id="g10"
     inkscape:groupmode="layer"
     inkscape:label="offset"
     style="display:inline;opacity:0.23;filter:url(#filter26)"
     sodipodi:insensitive="true">
    <path
       style="fill:#000000;stroke-width:0.35277778"
       d="m 96.404297,40.683594 c -3.105591,0.590291 -10.54652,-0.997519 -9.763672,4.078125 0.67001,1.797758 5.14511,2.370234 1.213083,2.252048 -13.854433,-0.582956 -26.926401,4.718432 -40.210745,7.810689 -5.828253,2.106855 -13.010355,3.704292 -17.068744,8.195075 0.09757,4.875834 6.975753,3.519963 10.175781,3.75586 2.065091,0.08335 7.618005,-0.942929 2.949219,1.046875 -14.201815,8.848436 -21.510287,24.66797 -32.628907,36.574214 -2.1418136,4.25103 3.874966,5.38298 6.712891,3.95508 0.589677,0.42077 -2.923504,4.17963 -3.050781,5.90235 -3.518553,7.90991 -10.1024422,16.67661 -6.357422,25.69726 3.432084,-3.99446 1.4279634,-0.0338 0.75,2.19727 -2.1663799,2.73856 -0.1690498,8.60132 3.630859,5.76172 1.858793,-1.48247 3.473445,-3.83597 2.25586,0.21484 -0.619989,7.01631 -1.921073,14.75647 -0.216797,21.4043 2.947463,2.68391 5.596145,-1.93593 6.257812,-4.15039 -1.306739,11.21582 0.948866,22.44854 0.431641,33.68554 7.899385,-1.04337 8.853095,-11.72351 13.867187,-15.37695 2.145312,5.95218 1.644633,13.07463 6.042969,18.05078 0.756191,3.55937 5.892923,8.39794 8.347657,3.46289 1.189305,1.00909 2.218446,5.26949 3.703124,7.36524 0.453773,2.49731 5.163236,2.65833 2.919922,4.875 -4.666913,-3.864 -8.789437,3.91696 -9.289062,6.87109 -1.862139,-3.89189 -4.119405,-8.05804 -3.56836,-12.51758 -4.387622,-1.73004 -5.949695,3.38163 -4.548828,6.55469 2.090234,7.42792 4.967682,16.11927 12.060547,20.125 5.25752,-0.3816 1.425907,-9.71625 3.09375,-10.57422 1.244818,3.45133 6.613282,4.07886 7.332031,-0.0449 1.180829,-3.89803 1.020647,-8.26514 1.570313,-12.0957 2.244084,1.74793 6.208559,7.53154 7.344721,6.35157 -0.394977,-13.63432 0.261891,-27.70794 6.854922,-39.91593 3.511963,-7.08667 -3.465554,-2.02573 -5.496518,1.07803 -5.420158,6.82048 -6.409155,16.57181 -7.894531,24.17773 -3.407539,0.79123 0.559849,-2.98164 -2.076172,-4.06445 -3.221406,-1.92868 -4.130675,4.24841 -5.203125,4.78906 -2.54264,-3.95003 -2.004794,-11.79534 -7.646484,-12.81055 -1.819021,-0.28093 -3.258882,3.64266 -3.330079,-0.0332 -1.403992,-5.73612 -2.471061,-11.50023 -3.609375,-17.21094 -2.482664,-5.54851 -9.731542,-2.41388 -12.564453,1.12696 -2.360357,2.91784 -0.958409,-4.08543 -1.273437,-6.0293 -0.463637,-7.78829 2.983003,-14.82309 5.296875,-22.17578 1.518017,-3.93915 -2.999185,-6.93694 -6.373047,-4.82813 -1.871035,-0.0715 -5.127078,4.52903 -3.494141,0.52539 0.657381,-5.39349 4.142653,-9.58414 6.888672,-14.10351 4.584366,1.87965 9.952364,-0.33321 13.994141,-1.19141 -1.00669,2.71988 3.228957,3.6039 3.849609,3.98242 -5.799036,5.66056 -10.448561,12.38548 -14.248047,19.51954 9.696456,1.23404 19.402777,-5.43459 27.376953,-7.34375 -4.689826,4.80789 -10.078561,9.83041 -12.408203,16.21093 2.219816,4.84282 6.343714,-1.58369 8.692642,-3.05109 8.870308,-7.9464 17.493236,-16.12609 28.205796,-21.40594 3.469662,-2.37174 -0.831317,-5.7855 -3.6875,-4.09961 -10.385103,1.45435 -21.515549,6.85914 -30.822266,8.22852 6.818935,-6.63378 15.209689,-11.75191 20.341797,-20.00781 -1.658662,-0.0682 -10.97715,3.06977 -6.621094,0.01 3.147454,-2.3776 6.845772,-3.85501 10.574219,-5.05078 -4.78262,-6.43199 -12.694628,-1.21224 -18.324219,0.84961 -1.81232,0.64253 -10.741992,5.30046 -5.96875,1.83008 5.866777,-5.38918 13.761724,-7.7807 19.548828,-13.10547 -11.868523,-1.584 -21.710651,7.35312 -30.339177,14.26944 -2.958754,2.13431 -6.968751,6.68472 -9.387385,7.30282 -0.110335,-2.72877 -3.806051,-2.72185 -5.201172,-2.41601 2.100869,-1.82012 6.466909,-6.73016 1.716797,-8.18164 -1.729147,-0.58033 -5.049613,1.38126 -5.611328,0.80664 4.513675,-8.75076 11.892465,-15.38481 19.513672,-21.29297 2.628921,-3.2272 -1.971269,-6.032332 -4.980469,-5.076172 -2.24568,0.192344 -4.92775,0.814236 -1.359375,-1.191406 8.362846,-5.766067 18.120376,-8.950977 27.375,-12.939453 -3.84194,-5.095871 -11.701477,-2.143609 -15.638672,-2.289063 7.715347,-5.292625 16.937627,-7.337413 25.775391,-9.550781 3.777222,-2.667778 -0.924263,-6.392004 -3.871094,-6.939453 -1.572221,-1.022686 -8.606077,-1.831047 -3.204294,-2.447882 13.805619,-4.22201 28.663892,-3.277947 42.059767,2.020148 2.81697,0.761626 2.94561,-2.778409 2.79492,-3.865235 2.5849,-0.49939 2.53639,-3.87603 1.37695,-5.408203 16.67352,6.277117 32.8082,13.91938 49.67969,19.714844 9.5464,6.772436 19.12588,16.59134 18.29883,29.197265 0.88281,3.641501 -3.01383,-1.112461 -4.20703,-1.634765 -2.4523,-2.221925 -5.45071,-3.634683 -8.39844,-5.064453 2.68744,5.259757 3.17674,14.993369 -4.64258,15.699219 -16.1091,2.02288 -23.75438,-16.767292 -38.78711,-18.478516 -12.16152,-0.403144 -24.669607,6.571754 -36.430537,0.373083 -3.469597,-1.410382 0.960052,2.347234 -4.424932,0.404261 C 68.709564,88.948 52.993505,92.649665 41.955078,102.24219 c -7.95138,5.66507 -0.559954,4.26417 4.916016,3.64258 8.301813,-0.80261 17.182073,-2.13734 25.263672,1.08398 1.124296,-1.18596 13.709717,9.13465 6.581126,0.37054 -2.41585,-4.71191 -7.221221,-7.680992 -12.354564,-8.501399 8.958167,-2.061457 19.024429,-3.025102 27.404297,-0.402344 7.910935,5.063263 20.698585,1.871443 25.296875,11.685543 0.92613,3.40965 6.32749,4.14199 6.33789,-0.0332 0.3887,-2.91056 -0.17828,-9.10975 4.22461,-8.19922 -3.13996,2.83955 -3.39092,8.59796 1.0293,10.30078 2.76427,4.48684 8.74189,0.83774 10.62109,-0.98437 -0.72153,5.11181 -10.48734,3.38092 -9.70312,8.97265 3.04417,2.81981 8.358,1.26076 12.39648,1.45899 7.23049,-0.53689 14.39727,-2.26902 20.98047,-5.33008 -7.53073,10.53862 -22.0518,7.9876 -33.19336,7.66406 -6.29515,-0.29458 -15.66571,0.39609 -16.9375,8.12305 0.0989,7.55233 8.74863,11.35684 15.16797,12.45117 -7.40023,6.10821 -14.17203,13.08648 -17.9043,22.08008 -6.66518,13.93615 -10.08097,29.54279 -11.33789,44.69141 1.44851,4.25978 5.72231,0.37553 5.99609,-2.50586 2.24095,-6.6614 4.4135,-13.29084 7.67579,-19.53516 0.015,4.66587 0.3625,10.29855 5.24218,12.61914 1.19532,-6.85207 2.63431,-15.65041 5.13868,-21.13476 1.93508,4.02346 5.65336,-0.36526 6.24414,-2.99024 2.12425,-5.22 -0.0672,3.55509 -0.10157,5.67383 -1.20658,7.54148 -0.60973,15.23404 1.42774,22.58203 4.72454,-11.78822 6.41352,-24.48163 10.66992,-36.41406 0.86789,4.0655 -2.26126,10.32499 1.86719,13.11328 4.30178,0.7272 5.48408,-6.5287 6.7207,-7.77539 0.18713,8.16387 -0.7039,16.25316 -0.85352,24.41601 6.78568,-6.46834 8.04608,-16.71355 8.67774,-25.02343 -0.57802,3.48777 4.44915,6.72084 5.57422,2.32812 0.7594,-1.3112 -0.2295,-6.49383 1.45196,-2.85959 2.8444,2.51887 3.10471,8.88342 7.51093,9.06467 2.15635,-0.80643 2.0284,4.18262 2.94336,6.08984 1.52205,6.39563 2.03515,13.04646 1.36523,19.5918 -2.66923,-5.35797 -5.24645,-11.61159 -10.2832,-15.10547 -3.51799,-1.30685 -4.59262,3.69531 -4.50586,5.63672 -2.01686,-1.64555 -6.65043,-6.23463 -5.48928,-0.89183 -0.23599,8.35045 -0.35848,16.87068 -2.47361,25.05003 -0.15506,-5.15464 -1.25735,-11.68421 -6.86914,-13.59375 -7.20897,12.56342 -13.81497,26.80958 -26.55274,34.74414 2.81892,-6.37286 5.65941,-13.51623 3.81446,-20.48046 -2.40978,-2.87976 -5.06746,1.17451 -6.04688,3.27343 1.14581,-2.59399 0.19263,-8.61857 -3.0332,-4.58203 -1.64876,4.03464 -5.97775,10.67217 -0.98242,13.9961 1.95849,0.46984 3.57598,-0.2976 1.79101,2.42968 -2.40249,5.65579 -5.50982,10.98803 -7.67773,16.75 13.72213,-1.77394 25.57057,-10.75517 33.37305,-21.76172 1.53652,-2.1145 3.47597,-7.45219 4.46679,-7.3457 0.96923,9.46969 -3.67544,18.17851 -5.77148,27.08008 1.6243,4.51732 5.97877,-0.19851 7.07812,-2.67188 5.36191,-9.54678 13.88093,-18.02331 15.27344,-29.25195 2.7129,3.47047 6.04862,-1.17475 6.05078,-4.09961 0.76208,-1.90564 0.577,-8.23942 1.75977,-3.67578 1.57788,3.15921 -0.40276,10.90465 5.43359,9.52148 6.16387,-4.42183 7.34506,-13.17927 7.78125,-20.2539 -0.19303,-12.466 -4.72158,-24.63775 -10.59375,-35.46289 -4.15616,-6.19225 -13.29603,-9.35528 -14.32422,-17.30664 3.35662,-12.43457 25.20454,-9.72976 25.67383,3.12695 0.19424,4.22085 5.36246,6.8922 8.27148,3.32227 12.28794,-12.4805 13.13831,-35.14176 -0.48617,-47.01485 -3.22233,-3.63203 -10.3752,-3.86717 -9.60562,-10.194138 0.21434,-6.854018 0.73615,-14.718026 -4.6211,-19.91211 C 169.0256,62.826015 148.22335,57.937241 130.81055,50.732422 119.88615,45.929858 108.66148,40.304553 96.404297,40.683594 Z M 89.888672,61.78125 c -10.283065,0.861323 -19.533665,7.59174 -25.072266,16.097656 8.271114,-1.540193 16.574212,-2.210895 24.681641,-3.757812 3.158934,-2.975405 -2.105567,-4.920708 -4.644531,-4.427735 -3.779063,-0.04143 3.874029,-2.263276 5.109375,-2.878906 3.939717,-1.481341 14.702009,-1.557598 5.360474,-3.681423 -1.779698,-0.569065 -3.520457,-1.423659 -5.434693,-1.35178 z m 59.449218,9.613281 c -2.68664,0.05736 -2.35937,3.444875 -0.41601,4.392578 -4.03992,-1.527612 -9.17894,-3.130563 -12.94141,-0.07422 0.48298,5.79508 8.43159,4.95459 12.26929,7.053327 4.95265,0.962836 9.19743,4.390473 13.13501,6.843157 10.29076,-0.07998 0.84649,-12.487741 -3.69336,-14.984375 -2.37853,-1.740072 -5.46527,-2.80573 -8.35352,-3.230469 z m 25.38086,33.457029 c 9.37293,6.44658 21.48075,12.85563 22.85352,25.48828 0.79996,7.82803 -2.97468,15.06899 -6.22461,21.91211 -0.78887,-5.00157 -1.79721,-11.43493 -7.60547,-12.80664 -15.71066,-8.01882 -34.16256,-2.91732 -50.50391,-7.625 -2.58185,-2.64687 -7.43045,0.48958 -4.03711,3.29297 0.72288,1.09443 5.28307,2.91188 1.60352,2.11914 -2.911,-0.25567 -8.2466,-1.93805 -8.15039,-5.09375 12.37111,-4.71066 26.75616,1.54997 38.69531,-5.35351 7.78621,-4.56095 12.05256,-13.47582 13.01562,-22.20508 z m -102.322266,2.22071 c 0.118362,0.0467 -0.146844,-0.0638 0,0 z m 109.078126,5.95703 c -3.98164,1.65743 -5.9049,6.96587 -9.05078,10.05468 -0.23635,4.71661 5.68572,1.64208 8.05469,0.42383 3.33274,-1.28712 8.55124,-4.48217 4.49804,-8.15429 -1.31752,-1.03087 -1.52339,-2.59515 -3.50195,-2.32422 z"
       id="path8"
       inkscape:connector-curvature="0" />
  </g>
  <g
     inkscape:groupmode="layer"
     id="layer2"
     inkscape:label="text">
    <path
       style="fill:none;stroke:#000000;stroke-width:0.48995048px;stroke-linecap:butt;stroke-linejoin:miter;stroke-opacity:1;opacity:0"
       d="M 12.232738,250.69771 C 74.885527,288.98901 115.2909,285.63264 211.9953,248.7558"
       id="path39"
       inkscape:connector-curvature="0"
       sodipodi:nodetypes="cc" />
    <text
       xml:space="preserve"
       style="font-style:normal;font-variant:normal;font-weight:normal;font-stretch:normal;font-size:19.7555542px;line-height:1.25;font-family:'Latin Modern Roman Caps';-inkscape-font-specification:'Latin Modern Roman Caps, Normal';font-variant-ligatures:normal;font-variant-caps:normal;font-variant-numeric:normal;font-feature-settings:normal;text-align:start;letter-spacing:0px;word-spacing:0px;writing-mode:lr-tb;text-anchor:start;fill:#000000;fill-opacity:1;stroke:none;stroke-width:0.26458332"
       id="text45"><textPath
         xlink:href="#path39"
         id="textPath47"><tspan
   style="stroke-width:0.26458332"
   id="tspan43"><tspan
     style="stroke-width:0.26458332"
     id="tspan41"
     y="22.037161"
     x="7.9566994">Lake Eagles #3761</tspan></tspan></textPath></text>
  </g>
</svg>
